<svg width="80" height="32" fill="none" xmlns="http://www.w3.org/2000/svg"><path d="M12.815 5.955c-.27-.236-.541-.236-.857.048-1.49.567-4.287 2.552-4.964 2.41 1.128-1.607 2.347-3.167 3.745-4.585.587-.85-.18-1.04-.27-1.512-.18-.615-.09-1.276.09-1.844.27-.472-.27-.567-.587-.378C6.318 4.064 3.204 8.035.316 12.053c-.45.614-.36 1.087-.045 1.465l1.534 2.033c.316.567.813.661 1.444.236l4.828-3.403c-1.94 3.308-3.79 7.043-5.189 11.58-.631 1.938 1.128 4.869 3.52 7.941.27.331.812 0 .451-.662-2.301-4.49-.406-11.438 6.994-21.695.36-.426.496-.851.226-1.277l-1.264-2.316zm19.041 5.908l.632-2.552c.135-.378.406-.567.767-.615h2.797l.361-1.181h-.947l-2.978.047c-.632-.047-1.128.189-1.444.945l-1.625 6.618-.631 2.6c-.18.567-.045 1.04.631 1.228.046 0 .136.048.18.048h3.791l.316-1.182h-2.888c-.225-.19-.406-.19-.316-.756l.677-2.79c.09-.33.27-.566.587-.566h2.21l.316-.993h-2.256c-.27-.189-.315-.473-.18-.85zm4.467 5.2c1.489-6.097.586-2.458 1.94-7.752.135-.378.406-.567.767-.614h2.752l.271-.946.09-.283h-3.925c-.632-.048-1.173.189-1.444.945l-1.354 5.53-.902 3.64c-.18.662-.045 1.134.812 1.276h3.79l.316-1.182h-2.888c-.135 0-.316-.047-.225-.614zM21.794 13.47l-2.166-1.985c-.45-.567 0-2.694.948-2.741h3.204l.27-1.135h-4.06c-1.263.237-2.3 2.978-1.804 4.302l2.21 2.08c.316.378.361.709.361 1.087l-.631 2.268c-.136.568-.497.568-.948.568H16.2L15.93 19h4.376c.677-.048 1.083-.473 1.173-1.182l.722-2.883c.18-.662-.045-1.135-.406-1.466zm7.309-.33l.316-1.37.677-2.884c.09-.756-.135-1.182-.677-1.276-.09-.048-.18-.048-.27-.048h-4.287l-1.85 7.232-1.083 4.207h1.489L26.08 8.744h1.76c.36.095.587.284.587.662l-.722 3.12c-.09.52-.406.85-.948 1.04l-1.354.283-.225 1.087 2.933-.567c.496-.142.902-.52.992-1.229zm15.613-5.577h-1.76l-.903 3.45-.992 3.829-1.083 4.16h1.76l.316-1.277 2.662-10.163zm15.612 0h-1.715L55.59 19h1.76l1.895-7.184 1.083-4.255zm7.715 6.711c.09-.33.27-.567.587-.567h2.21l.316-.993h-2.3c-.271-.189-.316-.472-.181-.85l.677-2.553c.135-.378.405-.567.766-.614h2.798l.225-.757.136-.472h-3.88c-.632-.048-1.173.189-1.444.945l-1.625 6.617-.631 2.6c-.18.567-.045 1.04.631 1.23.045 0 .136.046.18.046H70.3l.316-1.181h-2.933c-.226-.19-.406-.19-.316-.757l.677-2.694zm11.101-6.711h-5.19l-.857 3.214-.992 3.828-1.129 4.349h5.28c.767-.047 1.218-.473 1.398-1.276l2.347-9.123c.09-.567-.226-.945-.857-.992zm-1.038 2.08l-1.94 7.09c-.045.567-.406.945-1.129.992h-1.85c-.044 0-.09 0-.135-.047-.18-.095-.18-.331-.09-.568l.09-.33 2.301-8.178h2.256c.587.048.677.426.497 1.04zm-17.418 7.278l5.55-7.421.406-.567c.496-.756.316-1.324-.406-1.324H61.14l-.046 1.04h3.114c.406 0 .632.19.36.567l-5.324 7.327-.902 1.229c-.361.567-.226.993.406 1.276h5.505l.316-1.276h-3.79c-.362-.095-.407-.567-.09-.851zM47.784 7.61l-5.73 11.25-.09.189h1.353l4.512-8.981.406.047.226 2.505c.18.615-.226.567-.361.567h-1.264l-.225.946 1.489.047c.27.047.406.189.36.473l.271 4.254h1.534l-.631-11.345-1.85.048zm4.828 9.311l2.436-9.358h-1.76L50.673 17.63c-.045.568.18 1.182.902 1.371h3.474l.361-1.229-2.481-.047c-.316-.047-.452-.33-.316-.804z" fill="#1D1D1B"/></svg>