<svg width="30" height="30" fill="none" xmlns="http://www.w3.org/2000/svg"><g clip-path="url(#clip0_6_154)"><path d="M10.601 17.561l-4.453 1.133a1.172 1.172 0 01-.577-2.272l4.453-1.132a1.172 1.172 0 11.577 2.271zm.883-10.51c0-.765-.72-1.325-1.46-1.136L5.57 7.047a1.172 1.172 0 10.577 2.271L10.6 8.186c.52-.132.883-.6.883-1.135zm0 4.687c0-.764-.72-1.324-1.46-1.136L5.57 11.735a1.172 1.172 0 10.577 2.271l4.453-1.132c.52-.132.883-.6.883-1.136zm17.344 10.058c.647 0 1.172-.524 1.172-1.172V7.231a4.684 4.684 0 00-3.533-4.543L16.757.219a7.156 7.156 0 00-3.515 0l-9.71 2.469A4.684 4.684 0 000 7.23v19.252c0 1.093.495 2.104 1.358 2.775a3.492 3.492 0 003.024.632L15 27.19l10.618 2.7c1.06.27 2.162.039 3.024-.632A3.493 3.493 0 0030 26.483a1.172 1.172 0 10-2.344 0c0 .364-.165.701-.452.925-.288.223-.655.3-1.008.21L16.172 25.07V5.8a1.172 1.172 0 00-2.344 0v19.27L3.804 27.618c-.353.09-.72.013-1.008-.21a1.164 1.164 0 01-.452-.925V7.23c0-1.073.726-2.007 1.766-2.272l9.71-2.468a4.805 4.805 0 012.36 0l9.71 2.468a2.342 2.342 0 011.766 2.272v13.393c0 .648.525 1.172 1.172 1.172zM7.914 20.603l-2.343.624a1.172 1.172 0 00.577 2.271l2.344-.624a1.172 1.172 0 10-.578-2.271z" fill="#1085A9"/></g><defs><clipPath id="clip0_6_154"><path fill="#fff" d="M0 0h30v30H0z"/></clipPath></defs></svg>