<svg width="95" height="24" fill="none" xmlns="http://www.w3.org/2000/svg"><path d="M9.904 16.256V18h-8.4V6.8H9.68v1.744H3.584v2.912h5.408v1.712H3.584v3.088h6.32zM17.314 18l-2.191-2.96L12.915 18h-2.208l3.327-4.336-3.184-4.208h2.225l2.096 2.8 2.096-2.8h2.16l-3.2 4.176L19.57 18h-2.256zm8.468-8.64c.832 0 1.574.181 2.224.544a3.91 3.91 0 011.552 1.536c.374.661.56 1.424.56 2.288 0 .864-.186 1.632-.56 2.304a3.91 3.91 0 01-1.552 1.536c-.65.363-1.392.544-2.224.544-1.152 0-2.064-.384-2.736-1.152v4.144h-2V9.456h1.904v1.12c.331-.405.736-.71 1.216-.912a4.192 4.192 0 011.616-.304zm-.224 7.04c.736 0 1.339-.245 1.808-.736.48-.49.72-1.136.72-1.936s-.24-1.445-.72-1.936c-.469-.49-1.072-.736-1.808-.736-.48 0-.912.112-1.296.336a2.315 2.315 0 00-.912.928c-.224.405-.336.875-.336 1.408 0 .533.112 1.003.336 1.408.224.405.528.72.912.944.384.213.816.32 1.296.32zm6.457-10.272h2V18h-2V6.128zm8.465 11.984c-.864 0-1.642-.187-2.336-.56A4.157 4.157 0 0136.512 16c-.384-.672-.576-1.43-.576-2.272 0-.843.192-1.595.576-2.256a4.157 4.157 0 011.632-1.552c.694-.373 1.472-.56 2.336-.56.875 0 1.659.187 2.352.56.694.373 1.232.89 1.616 1.552.395.661.592 1.413.592 2.256 0 .843-.197 1.6-.592 2.272a4.044 4.044 0 01-1.616 1.552c-.693.373-1.477.56-2.352.56zm0-1.712c.736 0 1.344-.245 1.824-.736.48-.49.72-1.136.72-1.936s-.24-1.445-.72-1.936c-.48-.49-1.088-.736-1.824-.736s-1.344.245-1.824.736c-.47.49-.704 1.136-.704 1.936s.235 1.445.704 1.936c.48.49 1.088.736 1.824.736zm8.377-5.696c.576-.896 1.589-1.344 3.04-1.344v1.904a2.538 2.538 0 00-.464-.048c-.779 0-1.387.23-1.824.688-.438.448-.656 1.099-.656 1.952V18h-2V9.456h1.904v1.248zm12.69 3.072c0 .139-.01.336-.032.592h-6.704c.117.63.422 1.13.912 1.504.502.363 1.12.544 1.856.544.939 0 1.712-.31 2.32-.928l1.072 1.232c-.384.459-.87.805-1.456 1.04-.587.235-1.248.352-1.984.352-.938 0-1.765-.187-2.48-.56A4.105 4.105 0 0153.387 16c-.384-.672-.576-1.43-.576-2.272 0-.832.187-1.579.56-2.24a4.069 4.069 0 011.584-1.568c.672-.373 1.43-.56 2.272-.56.832 0 1.574.187 2.224.56.661.363 1.173.88 1.536 1.552.373.661.56 1.43.56 2.304zm-4.32-2.816c-.64 0-1.184.192-1.632.576-.437.373-.704.875-.8 1.504h4.848c-.085-.619-.346-1.12-.784-1.504-.437-.384-.981-.576-1.632-.576zM83.12 8.054l3.21 3.21h-8.628v1.5h8.52L83.12 15.86l1.06 1.06 4.434-4.435v-1.06l-4.432-4.433-1.06 1.06h-.002z" fill="#fff"/><path d="M83 21a9 9 0 110-18 9 9 0 010 18zm0-1.5a7.5 7.5 0 100-15 7.5 7.5 0 000 15z" fill="#fff"/></svg>