<svg width="30" height="30" fill="none" xmlns="http://www.w3.org/2000/svg"><g clip-path="url(#clip0_6_170)"><path d="M6.592 19.903c-.43.22-.963.15-1.322-.174a1.182 1.182 0 01-.272-1.368c.207-.434.67-.707 1.151-.668.477.038.889.372 1.029.828a1.18 1.18 0 01-.586 1.382zm4.926-1.382a1.183 1.183 0 00-1.029-.828c-.49-.04-.964.245-1.163.694-.201.453-.088 1 .277 1.336.359.33.895.4 1.329.18a1.18 1.18 0 00.586-1.382zM25.905.879H13.302a4.1 4.1 0 00-4.096 4.095v1.452a1.172 1.172 0 102.344 0V4.974c0-.966.786-1.751 1.752-1.751h12.603c.965 0 1.751.785 1.751 1.751v9.142c0 .966-.785 1.752-1.751 1.752h-1.282c-.546 0-1.02.377-1.142.91l-.314 1.368a1.172 1.172 0 102.284.525l.106-.46h.348A4.1 4.1 0 0030 14.117V4.974A4.1 4.1 0 0025.905.88zM15.857 18.52a1.183 1.183 0 00-1.026-.828 1.18 1.18 0 00-1.153.667c-.21.45-.114.998.243 1.343.358.345.909.426 1.35.2a1.18 1.18 0 00.586-1.382zm.841-8.58H4.095A4.1 4.1 0 000 14.036v9.142a4.1 4.1 0 004.095 4.096h.348l.216.938a1.172 1.172 0 001.839.68l2.187-1.618h8.013a4.1 4.1 0 004.096-4.096v-.089a1.172 1.172 0 00-2.344 0v.09c0 .965-.786 1.751-1.752 1.751h-8.4c-.25 0-.494.08-.696.23l-1.06.783-.023-.103a1.172 1.172 0 00-1.143-.91h-1.28a1.754 1.754 0 01-1.752-1.752v-9.142c0-.965.785-1.751 1.751-1.751h12.603c.966 0 1.752.786 1.752 1.751v3.194a1.172 1.172 0 102.344 0v-3.194a4.1 4.1 0 00-4.096-4.095z" fill="#1085A9"/></g><defs><clipPath id="clip0_6_170"><path fill="#fff" d="M0 0h30v30H0z"/></clipPath></defs></svg>