<svg width="162" height="75" fill="none" xmlns="http://www.w3.org/2000/svg"><path d="M0 42.266h10.604v2.384H2.687v5.68h7.649v2.384H2.687v5.804h8.186v2.363H0V42.266zm28.588 0h2.543v18.657h-2.295L16.31 46.556v14.365h-2.522V42.267h2.17l12.63 14.49v-14.49zM.227 65.545h5.21v1.182H1.53v2.819h3.782v1.202H1.53v2.86h4.03v1.182H.228v-9.245zm16.971 9.287v-9.287H20.3a6.185 6.185 0 012.977.58 4.305 4.305 0 011.736 1.659c.428.728.65 1.56.64 2.404a4.539 4.539 0 01-1.364 3.275 4.71 4.71 0 01-1.55.995 4.12 4.12 0 01-.971.27 13.95 13.95 0 01-1.654 0l-2.915.104zm2.977-8.105h-1.654v6.902h1.654c.52.008 1.04-.04 1.55-.145a3.304 3.304 0 001.571-.85 3.421 3.421 0 00.972-2.529 3.18 3.18 0 00-.992-2.425 3.41 3.41 0 00-1.757-.87 7.367 7.367 0 00-1.365 0m26.832-24.544h2.666l-7.896 18.719h-.62l-8.062-18.719h2.708l5.622 13.101 5.582-13.1zm7.441 0H51.74v18.636h2.687V42.266zm4.217 18.656V42.267h4.693a6.788 6.788 0 014.506 1.41 4.684 4.684 0 011.674 3.793 4.777 4.777 0 01-.827 2.82 4.859 4.859 0 01-2.336 1.761 8.312 8.312 0 011.758 1.617 32.715 32.715 0 012.397 3.524c.662 1.057 1.179 1.866 1.571 2.384l.993 1.347h-3.184l-.806-1.222-.165-.229-.517-.746-.848-1.347-.888-1.472a13.755 13.755 0 00-1.53-1.824 5.71 5.71 0 00-1.24-.974 4.124 4.124 0 00-1.86-.311h-.704v8.126h-2.687zm3.494-16.375h-.807v5.887h1.013a7.545 7.545 0 002.79-.353 2.51 2.51 0 001.18-1.036 3.03 3.03 0 00.433-1.596 2.845 2.845 0 00-.475-1.596 2.42 2.42 0 00-1.323-1.016 9.835 9.835 0 00-2.811-.29zm20.547-2.529a10.043 10.043 0 017.214 2.736 9.04 9.04 0 012.894 6.84 8.935 8.935 0 01-2.915 6.841 10.32 10.32 0 01-7.338 2.695 9.713 9.713 0 01-7.049-2.695 8.997 8.997 0 01-2.832-6.778 9.165 9.165 0 012.853-6.903 9.9 9.9 0 017.173-2.736zm.103 2.529a7.317 7.317 0 00-5.292 2.073 6.882 6.882 0 00-2.067 5.12 6.67 6.67 0 002.067 5.016 7.127 7.127 0 005.189 2.073 7.176 7.176 0 005.23-2.073 6.8 6.8 0 002.067-5.079 6.732 6.732 0 00-2.067-4.995 7.151 7.151 0 00-5.148-2.073m9.943-2.363h15.628v2.363h-6.512v16.313h-2.708V44.61H92.71v-2.363zm18.17.02h10.605v2.384h-7.938v5.68h7.669v2.384h-7.669v5.804h8.186v2.363H110.88V42.266zm29.849 14.324v2.944a14.227 14.227 0 01-6.821 1.596 10.56 10.56 0 01-5.313-1.244 9.526 9.526 0 01-3.477-3.508 9.557 9.557 0 01-1.256-4.784 9.052 9.052 0 012.914-6.84 9.985 9.985 0 017.194-2.778 16.66 16.66 0 016.553 1.534v2.923a13 13 0 00-6.429-1.866 7.472 7.472 0 00-5.333 2.073 6.714 6.714 0 00-2.067 5.058 6.619 6.619 0 002.067 5.037 7.473 7.473 0 005.354 2.073c2.372-.03 4.684-.75 6.656-2.073m16.454-14.469h2.666v18.657h-2.666v-8.126h-10.522v8.126h-2.687V42.266h2.687v8.064h10.522v-8.064zM44.174 65.545h1.323v5.265a6.235 6.235 0 01-.165 1.617 3.61 3.61 0 01-.372.891 3.579 3.579 0 01-3.432 1.597 4.25 4.25 0 01-2.873-.933 2.442 2.442 0 01-.558-.664 2.409 2.409 0 01-.372-.87 6.359 6.359 0 01-.166-1.658v-5.245h1.344v5.265a3.887 3.887 0 00.29 1.824c.215.355.532.637.91.809.442.218.932.325 1.425.31a2.848 2.848 0 001.902-.621 1.68 1.68 0 00.558-.767c.15-.504.214-1.03.186-1.555v-5.265zm21.064 7.214v1.45a6.724 6.724 0 01-3.349.788 5.094 5.094 0 01-2.604-.621 4.368 4.368 0 01-1.695-1.721 4.695 4.695 0 01.806-5.763 4.918 4.918 0 013.535-1.368 8.537 8.537 0 013.225.746v1.43a6.354 6.354 0 00-3.163-.932 3.569 3.569 0 00-2.625 1.016 3.53 3.53 0 00.082 4.975 3.594 3.594 0 002.625.974 5.921 5.921 0 003.163-.974zm17.736-7.255h.93l4.135 9.307h-1.365l-1.22-2.736h-3.927l-1.157 2.757h-1.344l3.948-9.328zm1.943 5.39l-1.488-3.359-1.385 3.358h2.873zm11.865-5.37h7.69v1.182h-3.204v8.105h-1.323v-8.105h-3.163v-1.182zm20.961.021h-1.323v9.266h1.323v-9.266zm16.992-.125a4.995 4.995 0 013.555 1.348 4.541 4.541 0 011.426 3.42 4.352 4.352 0 01-1.447 3.38 4.973 4.973 0 01-3.596 1.347 4.743 4.743 0 01-3.473-1.348 4.442 4.442 0 01-1.385-3.358 4.62 4.62 0 011.385-3.441 4.908 4.908 0 013.535-1.347zm0 1.265a3.594 3.594 0 00-2.605.995 3.613 3.613 0 000 5.016 3.51 3.51 0 002.563.996 3.442 3.442 0 002.564-1.016 3.406 3.406 0 001.033-2.53 3.325 3.325 0 00-1.033-2.466 3.494 3.494 0 00-2.522-.995zm23.462-1.14h1.24v9.266H158.3l-6.139-7.13v7.13h-1.241v-9.266h1.075l6.202 7.193v-7.193z" fill="#fff"/><path d="M155.447 14.925V33.29l6.553-.02V16.977l-6.553-2.052z" fill="#159CC3"/><path d="M17.798 18.034L2.17 22.574v11.048l15.628-.041V18.034z" fill="#17465E"/><path d="M17.798 33.58l7.235-.02V15.92l-7.235 2.114v15.547z" fill="#87C5E0"/><path d="M25.033 33.56l13.188-.02V12.105L25.033 15.92v17.64z" fill="#159CC3"/><path d="M38.221 12.106v21.433l4.424-.02V11.277l-.765-.25-3.659 1.079z" fill="#83CAC7"/><path d="M42.645 11.277v22.242l10.79-.021v-18.78l-.083.062-10.707-3.503z" fill="#159CC3"/><path d="M53.435 33.498H57.3v-21.87l-3.865 3.09v18.78z" fill="#17465E"/><path d="M57.3 33.498l6.243-.02V6.612l-6.242 5.016v21.87z" fill="#83CAC7"/><path d="M63.523 6.633v26.865l7.606-.02V2.507l-3.39.726-4.217 3.4z" fill="#17465E"/><path d="M71.15 33.56l11.638-.02V.103L71.15 2.59v30.97z" fill="#87C5E0"/><path d="M87.398 33.436V2.778L82.788 0v33.436h4.61z" fill="#159CC3"/><path d="M87.398 33.436l14.552-.042V11.525L87.398 2.778v30.658z" fill="#266578"/><path d="M101.95 11.525v21.87l7.256-.021V9.556l-6.677 2.322-.579-.353z" fill="#87C5E0"/><path d="M109.206 33.374l13.519-.021V4.83l-13.519 4.726v23.818z" fill="#266578"/><path d="M122.725 33.353l15.007-.042V9.37l-14.759-4.622-.248.083v28.523z" fill="#159CC3"/><path d="M137.732 33.312h4.093V10.655l-4.093-1.285v23.942z" fill="#266578"/><path d="M141.825 33.312l10.108-.021V13.826l-10.108-3.171v22.657z" fill="#87C5E0"/><path d="M151.933 33.29l5.788-.02V15.63l-5.788-1.804v19.465z" fill="#266578"/></svg>