<svg width="30" height="30" fill="none" xmlns="http://www.w3.org/2000/svg"><g clip-path="url(#clip0_6_169)"><path d="M13.828 20.272v-4.101H9.727a1.172 1.172 0 110-2.344h4.101V9.725a1.172 1.172 0 012.344 0v4.102h4.101a1.172 1.172 0 010 2.344h-4.101v4.101a1.172 1.172 0 11-2.344 0zM25.607 4.393A14.902 14.902 0 0015 0C10.993 0 7.226 1.56 4.393 4.393A14.902 14.902 0 000 15c0 4.007 1.56 7.773 4.393 10.607A14.902 14.902 0 0015 30c2.743 0 5.427-.747 7.761-2.162a1.172 1.172 0 10-1.214-2.004A12.635 12.635 0 0115 27.656C8.021 27.656 2.344 21.98 2.344 15 2.344 8.021 8.02 2.344 15 2.344c6.979 0 12.656 5.677 12.656 12.656a12.61 12.61 0 01-2.146 7.025 1.172 1.172 0 101.949 1.302A14.943 14.943 0 0030 15c0-4.007-1.56-7.774-4.393-10.607z" fill="#1085A9"/></g><defs><clipPath id="clip0_6_169"><path fill="#fff" d="M0 0h30v30H0z"/></clipPath></defs></svg>