<svg width="30" height="30" fill="none" xmlns="http://www.w3.org/2000/svg"><g clip-path="url(#clip0_6_166)"><path d="M25.313 5.117h-.07V3.684a2.594 2.594 0 00-3.467-2.442l-4.908 1.472-.203-.576A2.589 2.589 0 0015.137.57a2.588 2.588 0 00-2.166.151L4.517 5.12A4.693 4.693 0 000 9.804V24.91a4.693 4.693 0 004.688 4.687h20.625A4.693 4.693 0 0030 24.91v-.067a1.172 1.172 0 10-2.344 0v.067a2.346 2.346 0 01-2.343 2.344H4.688a2.346 2.346 0 01-2.344-2.344V9.804a2.346 2.346 0 012.344-2.343h20.625a2.346 2.346 0 012.343 2.343v1.002h-7.319a4.546 4.546 0 00-4.54 4.54 4.546 4.546 0 004.54 4.541h7.745A1.172 1.172 0 0030 18.983V9.804a4.693 4.693 0 00-4.688-4.687zm-15.711 0l4.464-2.322a1.3 1.3 0 00.03-.016.243.243 0 01.21-.016c.05.019.116.06.148.151l.774 2.203H9.602zm8.11 0l-.067-.19 4.837-1.45.078-.027a.241.241 0 01.23.029c.05.034.108.097.108.205v1.433h-5.186zm.428 10.23a2.2 2.2 0 012.197-2.197h7.32v4.394h-7.32a2.2 2.2 0 01-2.197-2.197zm3.374 1.086a1.184 1.184 0 01-1.314-.306 1.183 1.183 0 01-.154-1.34 1.18 1.18 0 011.24-.593c.468.087.843.457.938.924a1.182 1.182 0 01-.71 1.315z" fill="#1085A9"/></g><defs><clipPath id="clip0_6_166"><path fill="#fff" d="M0 0h30v30H0z"/></clipPath></defs></svg>