<svg width="150" height="116" fill="none" xmlns="http://www.w3.org/2000/svg"><g clip-path="url(#clip0_1_341)" fill-rule="evenodd" clip-rule="evenodd" fill="#000"><path d="M42.48 25.36c.264-.132.528.132.66.396 0 0 .396 1.583.923 1.583 0 .264 0 .528-.264.66-.923.395-2.902.923-5.013.923-6.332 0-10.818-4.485-10.818-10.554 0-6.464 4.75-10.554 11.214-10.554.924 0 2.77.264 3.958.528.132.132.396.395.396.66v4.353c0 .264-.264.528-.528.528h-1.187c-.264 0-.396-.132-.528-.396l-.396-1.715c-.264-.924-1.055-1.32-2.638-1.32-4.486 0-5.937 3.563-5.937 7.256 0 4.222 1.979 8.18 6.992 8.18 1.055.132 2.507-.132 3.166-.528zm10.027.924c1.583 0 2.638-1.188 2.638-2.375l-.132-2.375c0-.132 0-.264-.264-.264-3.43 0-4.617 1.188-4.617 2.903-.132 1.187.924 2.11 2.375 2.11zm8.443.264c0-.264-.264-.396-.528-.396-.264.132-.527.132-.791.132-.66 0-.792-.396-.792-.924v-6.992c0-4.09-2.506-5.673-6.2-5.673-1.847 0-3.826.396-5.146.924-.263.132-.395.396-.263.66l.395 1.846c.132.396.396.396.66.264.924-.527 2.11-.791 3.298-.791 1.979 0 3.43.791 3.43 2.506v.528c0 .264-.132.528-.264.528-4.617 0-8.443 1.45-8.443 5.672 0 2.375 1.715 4.222 4.486 4.222 2.506 0 3.694-1.055 4.617-2.11h.132c.132 1.187.792 2.11 2.507 2.11.923 0 2.506-.264 2.77-.528.264-.132.264-.264.264-.527l-.132-1.451zM71.108 15.73c-1.583 0-2.77.923-2.77 2.374v6.069c0 1.32.923 2.11 2.506 2.11 2.903 0 3.958-2.902 3.958-5.54-.132-2.507-1.187-5.013-3.694-5.013zm-.396 18.733c.264 0 .528-.264.528-.528v-.791c0-.264-.132-.528-.396-.528l-1.847-.264c-.263-.132-.66-.396-.66-.923V28.13h.66c.396 0 .66.131 1.056.131 5.805 0 8.707-3.561 8.707-8.707 0-4.221-2.507-7.124-6.069-7.124-2.374 0-3.694 1.188-4.749 2.375h-.132l-.264-1.451c0-.264-.264-.66-.66-.528l-4.88.528c-.264 0-.528.264-.528.528v.791c0 .264.131.396.395.528l1.452.264c.527.132.66.66.66.923v15.436c0 .66-.265.923-.66.923l-1.188.396c-.264.132-.395.264-.395.528v.791c0 .264.263.528.527.528l8.443-.528zm19.79-8.707c.395 0 .659.132.659.396l.528 1.583c0 .396 0 .527-.264.66-.924.527-2.639.791-3.826.791-3.034 0-5.145-1.715-5.145-4.75v-7.915c0-.264-.132-.396-.396-.396h-2.11c-.265 0-.265-.132-.265-.396l.132-1.714s.132-.264.264-.264h1.715c.396 0 .396-.264.396-.528v-1.979c0-.396.132-.66.528-.791l2.902-.924c.396-.132.528.132.528.528v3.166c0 .132.132.396.396.396h3.825c.132 0 .264.132.264.264v1.847s-.132.263-.264.263h-3.825c-.264 0-.528.132-.528.396v7.124c0 1.715.923 2.77 2.638 2.77.528-.131 1.188-.263 1.847-.527zm11.609-8.575c0 2.11-2.111 2.77-4.09 2.77-.528 0-.923 0-1.187-.132-.264 0-.396-.132-.396-.395-.132-1.98.924-4.618 3.298-4.618 1.451 0 2.375 1.056 2.375 2.375zm2.638 8.047c.264-.264.528 0 .66.264l.132 1.583c.132.264 0 .528-.264.66-1.187.791-3.034 1.187-4.749 1.187-5.277 0-8.048-3.298-8.048-8.18 0-4.617 3.562-8.047 7.916-8.047 2.902 0 5.805 1.583 5.805 4.618 0 3.562-3.694 4.88-6.86 4.88H97.23c-.264 0-.396.133-.396.397.264 2.374 2.638 3.826 4.617 3.826 1.451 0 2.507-.528 3.298-.924v-.264zm11.874 3.43c.264 0 .527-.264.527-.527v-.792c0-.264-.131-.396-.395-.528l-1.847-.264c-.264 0-.66-.395-.66-.923v-6.86c0-1.583 1.319-2.507 2.771-2.507.659 0 1.319.132 1.846.264.264.132.66-.132.66-.264l.66-2.77c.132-.396 0-.66-.264-.66-.396-.264-.924-.264-1.319-.264-1.979 0-3.299 1.32-4.486 2.903h-.132l-.264-2.111c0-.396-.263-.66-.527-.66l-4.882.66c-.263 0-.527.264-.527.528v.791c0 .264.132.396.395.528l1.452.264c.527.132.659.66.659.923v9.499c0 .66-.264.923-.659.923l-1.32.264c-.263.132-.395.264-.395.528v.791c0 .264.263.528.527.528h8.18v-.264zm13.852-.527c0 .263-.264.527-.528.527h-8.179c-.264 0-.528-.264-.528-.527v-.792c0-.264.132-.396.396-.528l1.319-.264c.396 0 .66-.395.66-.923v-9.499c0-.396-.132-.791-.66-.923l-1.451-.264c-.264-.132-.396-.264-.396-.528v-.791c0-.264.264-.528.528-.528l4.881-.66c.264 0 .528.264.528.66l.264 2.375h.132c1.187-1.583 2.638-2.903 4.485-2.903.396 0 .924 0 1.319.264.264 0 .396.264.264.66l-.659 2.77c0 .132-.396.396-.66.264-.528-.132-1.187-.264-1.847-.264-1.451 0-2.77.924-2.77 2.507v6.86c0 .66.395.924.659.924l1.847.263c.264.132.396.264.396.528v.792zm13.588-4.222c0 1.187-.923 2.375-2.638 2.375-1.319 0-2.507-.924-2.507-2.243 0-1.715 1.188-2.902 4.618-2.902.264 0 .264.131.264.263l.263 2.507zm5.277 2.243c.264 0 .528.132.528.395l.264 1.584c0 .263 0 .395-.264.527-.396.264-1.847.528-2.77.528-1.583 0-2.375-.792-2.507-2.11h-.132c-.923.923-2.243 2.11-4.617 2.11-2.771 0-4.486-1.847-4.486-4.222 0-4.221 3.826-5.672 8.444-5.672.131 0 .263-.264.263-.528v-.66c0-1.847-1.451-2.506-3.43-2.506-1.187 0-2.506.395-3.298.791-.264.132-.528.132-.66-.264l-.395-1.847c-.132-.264 0-.527.264-.66 1.319-.659 3.298-.923 5.145-.923 3.694 0 6.2 1.583 6.2 5.673v6.992c0 .66.264.924.924.924 0 0 .264 0 .527-.132zM6.069 17.445H.792c-.132 0-.264-.132-.132-.132-.132 0-.132-.132-.132-.264l.132-.66c.132-.264.132-.396.132-.396 0-.132.131-.263.131-.395 0-.264.132-.528.264-.792C3.298 7.022 10.158.954 10.817.294c.397-.132.529-.132.793 0C18.864 6.76 21.636 13.223 21.9 16.785v.396c0 .132-.132.396-.396.396h-5.409c-.132 0-.396 0-.396-.264a4.766 4.766 0 00-4.617-3.694c-2.243 0-4.09 1.583-4.618 3.694-.132 0-.132.132-.395.132zm9.762 2.11h5.41s.263 0 0 .132c.131 0 .131.132.131.264l-.132.66c-.132.132-.132.264-.132.264 0 .132-.132.264-.132.395 0 .264-.132.528-.264.792-2.242 7.784-9.102 13.984-9.762 14.644-.264.132-.396.132-.66 0C3.166 30.24.264 23.777 0 20.216v-.397c0-.132.132-.395.396-.395h5.409c.132 0 .396 0 .396.263a4.766 4.766 0 004.617 3.694c2.243 0 4.09-1.583 4.617-3.694 0 0 .132-.132.396-.132z"/></g><path d="M1.44 97.275h1.305v4.86h5.64v-4.86H9.69V108H8.385v-4.77h-5.64V108H1.44V97.275zm11.958 0h1.305V108h-1.305V97.275zm9.676 10.86c-.83 0-1.565-.135-2.205-.405a4.73 4.73 0 01-1.635-1.125 5.024 5.024 0 01-1.005-1.725 6.656 6.656 0 01-.345-2.175v-.12c0-.78.125-1.505.375-2.175a5.13 5.13 0 011.065-1.74 4.82 4.82 0 011.635-1.14 5.22 5.22 0 012.115-.42c.53 0 1.04.065 1.53.195a4 4 0 011.32.615c.4.27.73.62.99 1.05.27.43.445.945.525 1.545h-1.305c-.15-.85-.5-1.455-1.05-1.815-.54-.37-1.2-.555-1.98-.555-.62 0-1.17.11-1.65.33-.48.21-.885.51-1.215.9-.33.39-.58.855-.75 1.395-.17.54-.255 1.14-.255 1.8v.12c0 .66.08 1.265.24 1.815.17.54.415 1 .735 1.38.32.38.72.675 1.2.885.48.21 1.035.315 1.665.315.58 0 1.08-.09 1.5-.27.42-.18.765-.42 1.035-.72.28-.31.485-.67.615-1.08.14-.42.215-.87.225-1.35h-3.135v-1.08h4.41v.795c0 .78-.115 1.465-.345 2.055a3.984 3.984 0 01-.945 1.485c-.41.4-.9.705-1.47.915-.57.2-1.2.3-1.89.3zm7.774-10.86h1.305v4.86h5.64v-4.86h1.305V108h-1.305v-4.77h-5.64V108h-1.305V97.275zm11.883 0h6.255v1.065h-4.95v3.645h3.99v1.065h-3.99v3.885h5.22V108h-6.525V97.275zm12.887 10.86c-.72 0-1.33-.09-1.83-.27a3.58 3.58 0 01-1.215-.75 3.19 3.19 0 01-.735-1.08 5.084 5.084 0 01-.315-1.305h1.26c.04.32.11.625.21.915.1.28.255.53.465.75.21.21.485.38.825.51.35.12.795.18 1.335.18.34 0 .66-.045.96-.135.3-.1.56-.24.78-.42.22-.18.39-.395.51-.645.13-.25.195-.525.195-.825 0-.3-.04-.56-.12-.78-.08-.23-.22-.425-.42-.585-.19-.16-.455-.295-.795-.405a8 8 0 00-1.26-.285c-.56-.09-1.065-.205-1.515-.345-.44-.14-.815-.32-1.125-.54a2.27 2.27 0 01-.705-.84c-.16-.34-.24-.75-.24-1.23 0-.41.085-.79.255-1.14.17-.36.405-.67.705-.93.31-.26.675-.465 1.095-.615.42-.15.885-.225 1.395-.225 1.08 0 1.935.255 2.565.765.64.5 1.015 1.23 1.125 2.19h-1.17c-.13-.68-.395-1.165-.795-1.455-.4-.3-.975-.45-1.725-.45-.74 0-1.3.165-1.68.495-.37.32-.555.735-.555 1.245 0 .26.03.495.09.705.07.2.195.375.375.525.19.15.45.285.78.405a8.4 8.4 0 001.335.285c.6.09 1.125.21 1.575.36.45.15.83.345 1.14.585.31.24.54.535.69.885.16.35.24.78.24 1.29 0 .45-.095.87-.285 1.26a3.09 3.09 0 01-.765 1.005c-.33.28-.725.5-1.185.66-.45.16-.94.24-1.47.24zm8.69-9.795h-3.12v-1.065h7.544v1.065h-3.12V108h-1.305v-9.66zm11.862-1.065h3.225c.51 0 .99.055 1.44.165.46.11.86.285 1.2.525.34.24.61.55.81.93.2.37.3.825.3 1.365v.06c0 .44-.07.83-.21 1.17-.14.33-.33.615-.57.855-.24.23-.52.42-.84.57-.32.15-.665.26-1.035.33L83.775 108H82.32l-3.194-4.665h-1.65V108H76.17V97.275zm3.316 5.025c.77 0 1.355-.165 1.754-.495.4-.33.6-.825.6-1.485v-.06c0-.36-.055-.665-.165-.915-.11-.25-.264-.45-.465-.6a1.83 1.83 0 00-.75-.315 4.163 4.163 0 00-.974-.105h-2.01v3.975h2.01zm9.91-5.025h1.71L94.735 108h-1.29l-1.05-3.09H87.97L86.935 108h-1.23l3.69-10.725zm-1.066 6.6h3.72l-1.86-5.52-1.86 5.52zM98.7 98.34h-3.12v-1.065h7.545v1.065h-3.12V108H98.7v-9.66zm7.143-1.065h6.255v1.065h-4.95v3.645h3.99v1.065h-3.99v3.885h5.22V108h-6.525V97.275zm12.197 9.66c.69 0 1.29-.1 1.8-.3.52-.2.95-.485 1.29-.855.35-.37.61-.815.78-1.335.18-.53.27-1.125.27-1.785v-.12c0-.62-.08-1.185-.24-1.695a3.286 3.286 0 00-.735-1.335c-.33-.38-.76-.67-1.29-.87-.52-.21-1.15-.315-1.89-.315h-1.455v8.61h1.47zm-2.775-9.66h2.835c.92 0 1.72.135 2.4.405.68.27 1.245.64 1.695 1.11a4.48 4.48 0 011.005 1.665c.22.64.33 1.335.33 2.085v.135c0 .74-.11 1.435-.33 2.085-.21.65-.54 1.215-.99 1.695-.45.48-1.02.86-1.71 1.14-.68.27-1.49.405-2.43.405h-2.805V97.275z" fill="#000"/><path fill-rule="evenodd" clip-rule="evenodd" d="M9.974 57l-2.403 7.313H0l6.249 4.666-2.404 7.44 6.13-4.666 6.248 4.665-2.403-7.44 6.128-4.665h-7.57L9.974 57zm26.32 0l-2.404 7.313H26.2l6.128 4.666-2.283 7.44 6.249-4.666 6.128 4.665-2.403-7.44 6.249-4.665h-7.691L36.294 57zm27.278 0l-2.404 7.313h-7.57l6.249 4.666-2.404 7.44 6.129-4.666 6.249 4.665-2.404-7.44 6.13-4.665h-7.572L63.572 57zm27.398 0l-2.283 7.313h-7.69l6.128 4.666-2.404 7.44 6.25-4.666 6.128 4.665-2.283-7.44 6.249-4.665h-7.691L90.97 57zm26.196 0l-2.404 7.313h-7.571l6.129 4.666-2.283 7.44 6.129-4.666 6.249 4.665-2.404-7.44 6.129-4.665h-7.691L117.166 57z" fill="#000"/><defs><clipPath id="clip0_1_341"><path fill="#fff" d="M0 0h150v37H0z"/></clipPath></defs></svg>