<svg width="90" height="21" fill="none" xmlns="http://www.w3.org/2000/svg"><path d="M0 .229h3.527v20.378H0V.23zm9.558 19.797a7.176 7.176 0 01-2.645-2.676c-.653-1.133-.976-2.379-.976-3.735 0-1.36.327-2.603.976-3.735a7.203 7.203 0 012.645-2.676 7.061 7.061 0 013.62-.977c1.302 0 2.507.327 3.621.977a7.177 7.177 0 012.646 2.676c.649 1.132.975 2.379.975 3.735 0 1.36-.326 2.602-.975 3.735a7.227 7.227 0 01-2.646 2.676 7.061 7.061 0 01-3.62.977 7.08 7.08 0 01-3.62-.977zm5.478-2.974a3.683 3.683 0 001.35-1.4c.337-.603.507-1.284.507-2.037 0-.754-.17-1.434-.507-2.036a3.681 3.681 0 00-1.35-1.4 3.592 3.592 0 00-1.857-.497 3.59 3.59 0 00-1.857.496c-.563.33-1.01.798-1.35 1.4-.341.603-.508 1.283-.508 2.037 0 .753.17 1.434.507 2.036.337.603.788 1.07 1.35 1.4.563.332 1.18.497 1.858.497a3.59 3.59 0 001.857-.496zM22.83.229h3.527v12.14l4.596-5.745h4.197l-5.186 6.48 5.56 7.5H31.01l-4.652-6.48v6.48H22.83V.229zm16.02 19.866c-.989-.603-1.79-1.466-2.405-2.588-.615-1.12-.923-2.418-.923-3.892 0-1.338.295-2.577.881-3.71.587-1.131 1.389-2.028 2.406-2.69a5.996 5.996 0 013.34-.992c.853 0 1.634.15 2.339.452.705.301 1.243.706 1.618 1.216V6.62h3.527v13.982h-3.527v-1.271a6.107 6.107 0 01-1.764 1.246c-.621.283-1.426.426-2.405.426-1.07-.003-2.097-.305-3.087-.908zm6.43-3.68c.659-.753.989-1.686.989-2.8 0-1.114-.33-2.048-.99-2.801-.66-.754-1.534-1.132-2.62-1.132-1.087 0-1.962.378-2.621 1.132-.66.753-.99 1.69-.99 2.8 0 1.114.33 2.048.99 2.802.66.753 1.53 1.132 2.62 1.132 1.087 0 1.962-.379 2.621-1.132zM52.736.229h3.527v20.378h-3.527V.23zm6.814 3.788c-.427-.452-.642-1-.642-1.643 0-.661.215-1.22.642-1.683.427-.463.945-.695 1.552-.695.625 0 1.153.232 1.59.695.437.463.656 1.025.656 1.683 0 .644-.219 1.188-.656 1.643a2.13 2.13 0 01-1.59.68c-.607 0-1.121-.224-1.552-.68zm-.187 2.607h3.527v13.983h-3.527V6.623zm5.936 13.019l.802-3.51h.16c1.159.945 2.343 1.415 3.554 1.415.5 0 .903-.1 1.215-.298a.96.96 0 00.469-.863c0-.398-.184-.717-.549-.963-.364-.247-1.048-.548-2.044-.905-1.018-.356-1.806-.878-2.364-1.558-.56-.68-.844-1.482-.844-2.404 0-1.302.458-2.35 1.378-3.143.917-.794 2.08-1.187 3.489-1.187.712 0 1.347.07 1.899.213a5.355 5.355 0 011.576.694l.132 3.566h-.188c-.642-.434-1.211-.76-1.711-.978a4.181 4.181 0 00-1.684-.327c-.444 0-.812.096-1.097.283-.284.188-.427.434-.427.735 0 .397.177.72.535.978.357.254 1.024.563 2.006.919 1.122.397 1.972.879 2.552 1.445.58.566.868 1.444.868 2.632 0 .981-.233 1.82-.695 2.517a4.342 4.342 0 01-1.83 1.57c-.756.35-1.589.522-2.499.522-1.836.004-3.405-.448-4.703-1.353zm14.703.367a7.122 7.122 0 01-2.607-2.7c-.632-1.144-.948-2.412-.948-3.809 0-1.36.299-2.591.896-3.694a6.765 6.765 0 012.485-2.617c1.06-.64 2.26-.963 3.597-.963 1.353 0 2.527.334 3.513 1.003.99.67 1.735 1.562 2.246 2.676a8.579 8.579 0 01.763 3.595v1.103H79.818c.215 1.058.673 1.86 1.378 2.404.705.547 1.635.82 2.794.82 1.764 0 3.305-.614 4.624-1.838h.375l-.132 3.536a9.69 9.69 0 01-2.54 1.102 9.623 9.623 0 01-2.566.368c-1.399.004-2.645-.323-3.75-.985zm6.415-7.954c-.09-.849-.424-1.514-1.003-1.996-.58-.481-1.288-.72-2.125-.72-.819 0-1.538.232-2.152.695-.614.463-1.027 1.136-1.243 2.025h6.523v-.004z" fill="#221F1F"/></svg>