<svg width="128" height="116" fill="none" xmlns="http://www.w3.org/2000/svg"><g clip-path="url(#clip0_1_326)" fill="#1D1D1B"><path d="M18.23.257c1.164 0 2.457 0 3.62.386l-3.62 7.071C12.8 7.33 8.016 11.7 7.628 17.357c-.258 5.658 3.88 10.543 9.439 10.8h1.163c2.457 0 4.784-.9 6.594-2.442l3.879 6.814A17.735 17.735 0 0118.101 36C8.533 36.257.388 28.93 0 18.9-.259 9 6.982.643 16.679.257h1.551z"/><path d="M22.11 15.557l-4.526 7.714h8.792l4.137 7.458 4.525-7.458-4.525-7.714H22.11zm1.163-2.828c0-1.286.258-2.443.905-3.472.646-.9 1.81-1.928 2.715-2.443l.646-.385c1.164-.643 1.552-.9 1.552-1.543 0-.643-.905-1.286-1.552-1.286-1.163 0-2.198.643-2.715 1.929l-1.551-1.415c.258-.642.905-1.285 1.551-1.928.905-.643 1.81-.643 2.715-.643.905 0 2.198.386 2.715.9.518.643 1.164 1.543 1.164 2.443 0 1.543-.905 2.828-2.715 3.471L27.798 9c-.905.643-1.552.9-1.81 1.929h5.43v2.185c0-.128-8.145-.385-8.145-.385z"/></g><path d="M5.205 107.135c-1.24 0-2.195-.345-2.865-1.035-.66-.7-.99-1.705-.99-3.015v-6.81h1.305v6.66c0 .56.05 1.04.15 1.44.1.39.255.71.465.96.21.25.475.435.795.555.33.11.72.165 1.17.165.43 0 .81-.05 1.14-.15.34-.1.625-.275.855-.525.24-.25.42-.585.54-1.005.13-.43.195-.975.195-1.635v-6.465H9.27v6.645c0 1.31-.335 2.34-1.005 3.09-.66.75-1.68 1.125-3.06 1.125zm11.07 0c-.72 0-1.33-.09-1.83-.27a3.58 3.58 0 01-1.215-.75 3.19 3.19 0 01-.735-1.08 5.084 5.084 0 01-.315-1.305h1.26c.04.32.11.625.21.915.1.28.255.53.465.75.21.21.485.38.825.51.35.12.795.18 1.335.18.34 0 .66-.045.96-.135.3-.1.56-.24.78-.42.22-.18.39-.395.51-.645.13-.25.195-.525.195-.825 0-.3-.04-.56-.12-.78-.08-.23-.22-.425-.42-.585-.19-.16-.455-.295-.795-.405a8 8 0 00-1.26-.285c-.56-.09-1.065-.205-1.515-.345-.44-.14-.815-.32-1.125-.54a2.27 2.27 0 01-.705-.84c-.16-.34-.24-.75-.24-1.23 0-.41.085-.79.255-1.14.17-.36.405-.67.705-.93.31-.26.675-.465 1.095-.615.42-.15.885-.225 1.395-.225 1.08 0 1.935.255 2.565.765.64.5 1.015 1.23 1.125 2.19h-1.17c-.13-.68-.395-1.165-.795-1.455-.4-.3-.975-.45-1.725-.45-.74 0-1.3.165-1.68.495-.37.32-.555.735-.555 1.245 0 .26.03.495.09.705.07.2.195.375.375.525.19.15.45.285.78.405a8.4 8.4 0 001.335.285c.6.09 1.125.21 1.575.36.45.15.83.345 1.14.585.31.24.54.535.69.885.16.35.24.78.24 1.29 0 .45-.095.87-.285 1.26a3.09 3.09 0 01-.765 1.005c-.33.28-.725.5-1.185.66-.45.16-.94.24-1.47.24zm6.865-10.86h6.255v1.065h-4.95v3.645h3.99v1.065h-3.99v3.885h5.22V107H23.14V96.275zm9.422 0h3.225c.51 0 .99.055 1.44.165.46.11.86.285 1.2.525.34.24.61.55.81.93.2.37.3.825.3 1.365v.06c0 .44-.07.83-.21 1.17-.14.33-.33.615-.57.855-.24.23-.52.42-.84.57-.32.15-.665.26-1.035.33L40.167 107h-1.455l-3.195-4.665h-1.65V107h-1.305V96.275zm3.315 5.025c.77 0 1.355-.165 1.755-.495.4-.33.6-.825.6-1.485v-.06c0-.36-.055-.665-.165-.915-.11-.25-.265-.45-.465-.6a1.83 1.83 0 00-.75-.315 4.163 4.163 0 00-.975-.105h-2.01v3.975h2.01zm10.348 5.835c-.72 0-1.33-.09-1.83-.27a3.58 3.58 0 01-1.215-.75 3.19 3.19 0 01-.735-1.08 5.084 5.084 0 01-.315-1.305h1.26c.04.32.11.625.21.915.1.28.255.53.465.75.21.21.485.38.825.51.35.12.795.18 1.335.18.34 0 .66-.045.96-.135.3-.1.56-.24.78-.42.22-.18.39-.395.51-.645.13-.25.195-.525.195-.825 0-.3-.04-.56-.12-.78-.08-.23-.22-.425-.42-.585-.19-.16-.455-.295-.795-.405a8 8 0 00-1.26-.285c-.56-.09-1.065-.205-1.515-.345-.44-.14-.815-.32-1.125-.54a2.27 2.27 0 01-.705-.84c-.16-.34-.24-.75-.24-1.23 0-.41.085-.79.255-1.14.17-.36.405-.67.705-.93.31-.26.675-.465 1.095-.615.42-.15.885-.225 1.395-.225 1.08 0 1.935.255 2.565.765.64.5 1.015 1.23 1.125 2.19h-1.17c-.13-.68-.395-1.165-.795-1.455-.4-.3-.975-.45-1.725-.45-.74 0-1.3.165-1.68.495-.37.32-.555.735-.555 1.245 0 .26.03.495.09.705.07.2.195.375.375.525.19.15.45.285.78.405a8.4 8.4 0 001.335.285c.6.09 1.125.21 1.575.36.45.15.83.345 1.14.585.31.24.54.535.69.885.16.35.24.78.24 1.29 0 .45-.095.87-.285 1.26a3.09 3.09 0 01-.765 1.005c-.33.28-.725.5-1.185.66-.45.16-.94.24-1.47.24zm11.585-10.86h1.305v9.66h4.905V107h-6.21V96.275zm13.284 9.78c.6 0 1.135-.105 1.605-.315.48-.22.885-.52 1.215-.9.33-.39.585-.855.765-1.395.18-.54.27-1.135.27-1.785v-.12c0-.6-.09-1.165-.27-1.695-.17-.53-.42-.99-.75-1.38-.33-.39-.735-.7-1.215-.93-.48-.23-1.03-.345-1.65-.345-.62 0-1.175.11-1.665.33-.49.21-.905.51-1.245.9-.33.39-.585.855-.765 1.395a5.723 5.723 0 00-.255 1.755v.12c0 .65.1 1.245.3 1.785.21.53.49.99.84 1.38.36.38.78.675 1.26.885.48.21 1 .315 1.56.315zm0 1.08c-.79 0-1.515-.14-2.175-.42-.65-.29-1.21-.68-1.68-1.17a5.364 5.364 0 01-1.08-1.725 5.92 5.92 0 01-.375-2.115v-.12c0-.76.125-1.47.375-2.13.26-.67.62-1.25 1.08-1.74a5.13 5.13 0 011.665-1.155c.65-.28 1.37-.42 2.16-.42s1.505.14 2.145.42c.64.28 1.19.665 1.65 1.155.46.49.815 1.065 1.065 1.725.25.66.375 1.365.375 2.115v.12c0 .76-.125 1.47-.375 2.13a5.33 5.33 0 01-1.065 1.74c-.45.49-.995.88-1.635 1.17-.64.28-1.35.42-2.13.42zm6.96-10.86h1.29l3.195 9.465 3.195-9.465h1.23L83.259 107h-1.56l-3.645-10.725zm11.64 0h6.255v1.065h-4.95v3.645h3.99v1.065h-3.99v3.885h5.22V107h-6.525V96.275zm17.907 10.86c-1.24 0-2.195-.345-2.865-1.035-.66-.7-.99-1.705-.99-3.015v-6.81h1.305v6.66c0 .56.05 1.04.15 1.44.1.39.255.71.465.96.21.25.475.435.795.555.33.11.72.165 1.17.165.43 0 .81-.05 1.14-.15.34-.1.625-.275.855-.525.24-.25.42-.585.54-1.005.13-.43.195-.975.195-1.635v-6.465h1.305v6.645c0 1.31-.335 2.34-1.005 3.09-.66.75-1.68 1.125-3.06 1.125zm11.07 0c-.72 0-1.33-.09-1.83-.27a3.58 3.58 0 01-1.215-.75 3.19 3.19 0 01-.735-1.08 5.084 5.084 0 01-.315-1.305h1.26c.04.32.11.625.21.915.1.28.255.53.465.75.21.21.485.38.825.51.35.12.795.18 1.335.18.34 0 .66-.045.96-.135.3-.1.56-.24.78-.42.22-.18.39-.395.51-.645.13-.25.195-.525.195-.825 0-.3-.04-.56-.12-.78-.08-.23-.22-.425-.42-.585-.19-.16-.455-.295-.795-.405a8 8 0 00-1.26-.285c-.56-.09-1.065-.205-1.515-.345-.44-.14-.815-.32-1.125-.54a2.27 2.27 0 01-.705-.84c-.16-.34-.24-.75-.24-1.23 0-.41.085-.79.255-1.14.17-.36.405-.67.705-.93.31-.26.675-.465 1.095-.615.42-.15.885-.225 1.395-.225 1.08 0 1.935.255 2.565.765.64.5 1.015 1.23 1.125 2.19h-1.17c-.13-.68-.395-1.165-.795-1.455-.4-.3-.975-.45-1.725-.45-.74 0-1.3.165-1.68.495-.37.32-.555.735-.555 1.245 0 .26.03.495.09.705.07.2.195.375.375.525.19.15.45.285.78.405a8.4 8.4 0 001.335.285c.6.09 1.125.21 1.575.36.45.15.83.345 1.14.585.31.24.54.535.69.885.16.35.24.78.24 1.29 0 .45-.095.87-.285 1.26a3.09 3.09 0 01-.765 1.005c-.33.28-.725.5-1.185.66-.45.16-.94.24-1.47.24z" fill="#000"/><path fill-rule="evenodd" clip-rule="evenodd" d="M9.974 56l-2.403 7.313H0l6.249 4.666-2.404 7.44 6.13-4.666 6.248 4.665-2.403-7.44 6.128-4.665h-7.57L9.974 56zm26.32 0l-2.404 7.313H26.2l6.128 4.666-2.283 7.44 6.249-4.666 6.128 4.665-2.403-7.44 6.249-4.665h-7.691L36.294 56zm27.278 0l-2.404 7.313h-7.57l6.249 4.666-2.404 7.44 6.129-4.666 6.249 4.665-2.404-7.44 6.13-4.665h-7.572L63.572 56zm27.398 0l-2.283 7.313h-7.69l6.128 4.666-2.404 7.44 6.25-4.666 6.128 4.665-2.283-7.44 6.249-4.665h-7.691L90.97 56zm26.196 0l-2.404 7.313h-7.571l6.129 4.666-2.283 7.44 6.129-4.666 6.249 4.665-2.404-7.44 6.129-4.665h-7.691L117.166 56z" fill="#000"/><defs><clipPath id="clip0_1_326"><path fill="#fff" d="M0 0h128v36H0z"/></clipPath></defs></svg>